<svg xmlns="http://www.w3.org/2000/svg" version="1.1" xmlns:xlink="http://www.w3.org/1999/xlink" xmlns:svgjs="http://svgjs.com/svgjs" width="32" height="32"><svg width="32" height="32" viewBox="0 0 32 32" fill="none" xmlns="http://www.w3.org/2000/svg">
<rect width="32" height="32" rx="16" fill="#4AA181"></rect>
<path d="M22.0665 7.00005H9.93333C9.49335 7.00005 9.27337 7.00005 9.13668 7.13879C9 7.27753 9 7.50083 9 7.94742V8.85969C9 9.30628 9 9.52958 9.13668 9.66832C9.27337 9.80706 9.49335 9.80706 9.93333 9.80706H22.0665C22.5065 9.80706 22.7265 9.80706 22.8632 9.66832C22.9999 9.52958 22.9999 9.30628 22.9999 8.85969V7.94742C22.9999 7.50083 22.9999 7.27753 22.8632 7.13879C22.7265 7.00005 22.5065 7.00005 22.0665 7.00005Z" fill="white"></path>
<path d="M14.6173 7.94737V20.0877C14.6173 20.5342 14.6173 20.7575 14.754 20.8963C14.8906 21.035 15.1106 21.035 15.5506 21.035H16.4493C16.8893 21.035 17.1093 21.035 17.246 20.8963C17.3827 20.7575 17.3827 20.5342 17.3827 20.0877V7.94737C17.3827 7.50077 17.3827 7.27748 17.246 7.13874C17.1093 7 16.8893 7 16.4493 7H15.5506C15.1106 7 14.8906 7 14.754 7.13874C14.6173 7.27748 14.6173 7.50077 14.6173 7.94737Z" fill="white"></path>
<path d="M9 13.5614V20.0877C9 20.5342 9 20.7575 9.13668 20.8963C9.27337 21.035 9.49335 21.035 9.93333 21.035H10.8321C11.2721 21.035 11.492 21.035 11.6287 20.8963C11.7654 20.7575 11.7654 20.5342 11.7654 20.0877V13.5614C11.7654 13.1148 11.7654 12.8915 11.6287 12.7527C11.492 12.614 11.2721 12.614 10.8321 12.614H9.93333C9.49335 12.614 9.27337 12.614 9.13668 12.7527C9 12.8915 9 13.1148 9 13.5614Z" fill="white"></path>
<path d="M20.2346 13.5614V20.0877C20.2346 20.5342 20.2346 20.7575 20.3713 20.8963C20.508 21.035 20.7279 21.035 21.1679 21.035H22.0667C22.5066 21.035 22.7266 21.035 22.8633 20.8963C23 20.7575 23 20.5342 23 20.0877V13.5614C23 13.1148 23 12.8915 22.8633 12.7527C22.7266 12.614 22.5066 12.614 22.0667 12.614H21.1679C20.7279 12.614 20.508 12.614 20.3713 12.7527C20.2346 12.8915 20.2346 13.1148 20.2346 13.5614Z" fill="white"></path>
<path d="M9.57279 24.9781H9V23.4305H9.57753C9.74006 23.4305 9.87997 23.4615 9.99726 23.5235C10.1146 23.5849 10.2048 23.6733 10.2679 23.7887C10.3315 23.9041 10.3633 24.0421 10.3633 24.2028C10.3633 24.364 10.3315 24.5025 10.2679 24.6184C10.2048 24.7343 10.114 24.8232 9.99568 24.8851C9.87786 24.9471 9.7369 24.9781 9.57279 24.9781ZM9.34163 24.6977H9.55859C9.65958 24.6977 9.74453 24.6806 9.81343 24.6464C9.88286 24.6116 9.93493 24.5579 9.96965 24.4854C10.0049 24.4124 10.0225 24.3182 10.0225 24.2028C10.0225 24.0884 10.0049 23.995 9.96965 23.9224C9.93493 23.8499 9.88312 23.7965 9.81422 23.7622C9.74532 23.728 9.66037 23.7109 9.55938 23.7109H9.34163V24.6977Z" fill="white"></path>
<path d="M10.8038 24.9781H10.4377L10.9955 23.4305H11.4358L11.9928 24.9781H11.6267L11.2219 23.7842H11.2093L10.8038 24.9781ZM10.7809 24.3698H11.6456V24.6252H10.7809V24.3698Z" fill="white"></path>
<path d="M11.9283 23.7003V23.4305H13.2553V23.7003H12.7606V24.9781H12.423V23.7003H11.9283Z" fill="white"></path>
<path d="M13.5549 24.9781H13.1889L13.7467 23.4305H14.1869L14.7439 24.9781H14.3778L13.9731 23.7842H13.9605L13.5549 24.9781ZM13.5321 24.3698H14.3968V24.6252H13.5321V24.3698Z" fill="white"></path>
<path d="M14.6794 23.7003V23.4305H16.0065V23.7003H15.5118V24.9781H15.1741V23.7003H14.6794Z" fill="white"></path>
<path d="M16.225 24.9781V23.4305H17.3138V23.7003H16.5667V24.069H17.2578V24.3388H16.5667V24.7083H17.317V24.9781H16.225Z" fill="white"></path>
<path d="M17.5854 24.9781V23.4305H18.2229C18.3449 23.4305 18.4491 23.4514 18.5353 23.4932C18.6221 23.5345 18.6881 23.5932 18.7334 23.6693C18.7791 23.7449 18.802 23.8338 18.802 23.936C18.802 24.0388 18.7789 24.1272 18.7326 24.2013C18.6863 24.2748 18.6192 24.3313 18.5314 24.3705C18.4441 24.4098 18.3384 24.4295 18.2142 24.4295H17.7874V24.1665H18.159C18.2242 24.1665 18.2784 24.158 18.3215 24.1408C18.3647 24.1237 18.3967 24.098 18.4178 24.0638C18.4393 24.0295 18.4501 23.9869 18.4501 23.936C18.4501 23.8847 18.4393 23.8413 18.4178 23.8061C18.3967 23.7708 18.3644 23.7441 18.3207 23.726C18.2776 23.7073 18.2232 23.698 18.1574 23.698H17.927V24.9781H17.5854ZM18.458 24.2738L18.8596 24.9781H18.4825L18.0896 24.2738H18.458Z" fill="white"></path>
<path d="M19.3219 24.9781H18.9559L19.5137 23.4305H19.9539L20.5109 24.9781H20.1448L19.7401 23.7842H19.7275L19.3219 24.9781ZM19.2991 24.3698H20.1638V24.6252H19.2991V24.3698Z" fill="white"></path>
<path d="M20.8956 24.9977C20.8435 24.9977 20.7988 24.9801 20.7614 24.9448C20.7246 24.9091 20.7062 24.8662 20.7062 24.8164C20.7062 24.767 20.7246 24.7247 20.7614 24.6894C20.7988 24.6542 20.8435 24.6365 20.8956 24.6365C20.946 24.6365 20.9902 24.6542 21.0281 24.6894C21.066 24.7247 21.0849 24.767 21.0849 24.8164C21.0849 24.8496 21.076 24.8801 21.0581 24.9078C21.0407 24.935 21.0178 24.9569 20.9894 24.9736C20.961 24.9897 20.9297 24.9977 20.8956 24.9977Z" fill="white"></path>
<path d="M21.7064 25C21.6291 25 21.5602 24.9872 21.4997 24.9615C21.4392 24.9353 21.3914 24.8967 21.3561 24.8458C21.3214 24.7945 21.304 24.7305 21.304 24.6539C21.304 24.5894 21.3164 24.5353 21.3411 24.4914C21.3658 24.4476 21.3995 24.4124 21.4421 24.3857C21.4847 24.359 21.5331 24.3388 21.5873 24.3252C21.642 24.3116 21.6993 24.302 21.7593 24.2965C21.8298 24.2894 21.8866 24.2829 21.9297 24.2768C21.9728 24.2703 22.0041 24.2607 22.0236 24.2481C22.0431 24.2355 22.0528 24.2169 22.0528 24.1922V24.1877C22.0528 24.1398 22.037 24.1028 22.0054 24.0766C21.9744 24.0504 21.9302 24.0373 21.8729 24.0373C21.8124 24.0373 21.7643 24.0501 21.7285 24.0758C21.6927 24.101 21.6691 24.1328 21.6575 24.1711L21.3467 24.1469C21.3624 24.0763 21.3935 24.0154 21.4397 23.964C21.486 23.9121 21.5457 23.8723 21.6188 23.8446C21.6925 23.8164 21.7777 23.8023 21.8745 23.8023C21.9418 23.8023 22.0062 23.8099 22.0678 23.825C22.1298 23.8401 22.1848 23.8635 22.2327 23.8952C22.2811 23.927 22.3192 23.9678 22.3471 24.0177C22.3749 24.067 22.3889 24.1262 22.3889 24.1952V24.9781H22.0701V24.8171H22.0607C22.0412 24.8534 22.0152 24.8854 21.9826 24.9131C21.95 24.9403 21.9108 24.9617 21.865 24.9773C21.8192 24.9924 21.7664 25 21.7064 25ZM21.8027 24.7778C21.8521 24.7778 21.8958 24.7685 21.9336 24.7499C21.9715 24.7307 22.0012 24.705 22.0228 24.6728C22.0444 24.6406 22.0551 24.604 22.0551 24.5632V24.4401C22.0446 24.4466 22.0302 24.4527 22.0118 24.4582C21.9939 24.4632 21.9736 24.468 21.951 24.4726C21.9284 24.4766 21.9058 24.4804 21.8832 24.4839C21.8605 24.4869 21.84 24.4897 21.8216 24.4922C21.7822 24.4977 21.7477 24.5066 21.7183 24.5187C21.6888 24.5307 21.6659 24.5471 21.6496 24.5678C21.6333 24.5879 21.6252 24.6131 21.6252 24.6433C21.6252 24.6872 21.6417 24.7207 21.6749 24.7438C21.7085 24.7665 21.7511 24.7778 21.8027 24.7778Z" fill="white"></path>
<path d="M22.6496 24.9781V23.8174H22.9857V24.9781H22.6496ZM22.8185 23.6678C22.7685 23.6678 22.7256 23.6519 22.6899 23.6202C22.6546 23.5879 22.637 23.5494 22.637 23.5046C22.637 23.4602 22.6546 23.4222 22.6899 23.3905C22.7256 23.3582 22.7685 23.3421 22.8185 23.3421C22.8684 23.3421 22.9111 23.3582 22.9463 23.3905C22.9821 23.4222 22.9999 23.4602 22.9999 23.5046C22.9999 23.5494 22.9821 23.5879 22.9463 23.6202C22.9111 23.6519 22.8684 23.6678 22.8185 23.6678Z" fill="white"></path>
</svg><style>@media (prefers-color-scheme: light) { :root { filter: none; } }
</style></svg>